<svg width="400px" height="400px" viewBox="0 0 400 400" xmlns="http://www.w3.org/2000/svg" version="1.1">
  <rect x="4" y="4" width="392" height="392" fill="none" stroke="blue" stroke-width="2"></rect>
    <path d="M 4 200 l 98 0 z M 4 102 l 392 0 z M 4 298 l 392 0 z M 200 4 l 0 98 z M 102 4 l 0 392 z M 298 4 l 0 392 z M 298 200 l 98 0 z M 200 298 l 0 98 z" fill="none" stroke="blue" stroke-width="2"></path>

  <g id="d1-lagna" transform="translate(302,204)">
    <path d="M 0 0 l 90 0 l 0 90 l -90 0 l 0 -90 z" fill="none" stroke="red" stroke-width="2"></path>
  </g>

  <g id="d1-sun" transform="translate(53,151)">
    <circle cx="0" cy="0" r="18" fill="orange" stroke="none"></circle>
    <text x="0" y="5" font-size="16" text-anchor="middle" font-family="Arial">Su</text>
  </g>
  <g id="d1-moon" transform="translate(53,53)">
    <circle cx="0" cy="0" r="18" fill="#ddd" stroke="none"></circle>
    <text x="0" y="5" font-size="16" text-anchor="middle" font-family="Arial">Mo</text>
  </g>
  <g id="d1-mars" transform="translate(152,53)">
    <circle cx="0" cy="0" r="18" fill="red" stroke="none"></circle>
    <text x="0" y="5" font-size="16" text-anchor="middle" font-family="Arial">Ma</text>
  </g>
  <g id="d1-mercury" transform="translate(53,249)">
    <circle cx="0" cy="0" r="18" fill="green" stroke="none"></circle>
      <circle cx="0" cy="0" r="15" fill="none" stroke="black" stroke-width="1"></circle>
    <text x="0" y="5" font-size="16" text-anchor="middle" font-family="Arial">Me</text>
  </g>
  <g id="d1-jupiter" transform="translate(348,53)">
    <circle cx="0" cy="0" r="18" fill="yellow" stroke="none"></circle>
      <circle cx="0" cy="0" r="15" fill="none" stroke="black" stroke-width="1"></circle>
    <text x="0" y="5" font-size="16" text-anchor="middle" font-family="Arial">Ju</text>
  </g>
  <g id="d1-venus" transform="translate(53,347)">
    <circle cx="0" cy="0" r="18" fill="pink" stroke="none"></circle>
    <text x="0" y="5" font-size="16" text-anchor="middle" font-family="Arial">Ve</text>
  </g>
  <g id="d1-saturn" transform="translate(250,347)">
    <circle cx="0" cy="0" r="18" fill="blue" stroke="none"></circle>
    <text x="0" y="5" font-size="16" text-anchor="middle" font-family="Arial">Sa</text>
  </g>
  <g id="d1-rahu" transform="translate(27,321)">
    <circle cx="0" cy="0" r="18" fill="gray" stroke="none"></circle>
    <circle cx="0" cy="0" r="15" fill="none" stroke="black" stroke-width="1"></circle>
    <text x="0" y="5" font-size="16" text-anchor="middle" font-family="Arial">Ra</text>
  </g>
  <g id="d1-ketu" transform="translate(322,27)">
    <circle cx="0" cy="0" r="18" fill="gray" stroke="none"></circle>
    <circle cx="0" cy="0" r="15" fill="none" stroke="black" stroke-width="1"></circle>
    <text x="0" y="5" font-size="16" text-anchor="middle" font-family="Arial">Ke</text>
  </g>
</svg>
